<?xml version="1.0" encoding="utf-8"?>
<!-- Generator: Adobe Illustrator 25.4.1, SVG Export Plug-In . SVG Version: 6.00 Build 0)  -->
<svg version="1.1" id="Layer_1" xmlns="http://www.w3.org/2000/svg" xmlns:xlink="http://www.w3.org/1999/xlink" x="0px" y="0px"
	 viewBox="0 0 72 72" style="enable-background:new 0 0 72 72;" xml:space="preserve">
<style type="text/css">
	.st0{fill:url(#SVGID_1_);}
	.st1{fill:none;stroke:#FFFFFF;stroke-width:0.1568;stroke-linecap:round;stroke-linejoin:round;}
	.st2{fill:url(#SVGID_00000168810255487329882190000007700633800034494894_);}
	.st3{fill:url(#SVGID_00000120528136965152596310000018092784857379479463_);}
	.st4{fill:url(#SVGID_00000126300740793855968410000009928813751990449598_);}
	.st5{fill:url(#SVGID_00000109024787655614724260000009669855710778446255_);}
	.st6{fill:url(#SVGID_00000021797510346758179830000013258139206672067718_);}
	.st7{fill:url(#SVGID_00000045583909795088638970000011292244064270385805_);}
	.st8{fill:url(#SVGID_00000144335329930535591420000009778965085010787220_);}
	.st9{fill:url(#SVGID_00000092446358470892370650000007599084451588027321_);}
	.st10{fill:url(#SVGID_00000165229954294939336640000004338332260218104192_);}
	.st11{fill:url(#SVGID_00000072984457350862070380000002885401694470388899_);}
	.st12{fill:url(#SVGID_00000124866049349979023860000003419064538735654552_);}
	.st13{fill:url(#SVGID_00000108281308746910018990000010670731120913732992_);}
	.st14{fill:url(#SVGID_00000096056849150206020470000001043919873693089158_);}
	.st15{clip-path:url(#SVGID_00000109737141476863553040000013881307986479226260_);fill:#00B0D8;}
	.st16{clip-path:url(#SVGID_00000109737141476863553040000013881307986479226260_);fill:#AEDEE4;}
	.st17{clip-path:url(#SVGID_00000109737141476863553040000013881307986479226260_);fill:#57B6DD;}
	.st18{clip-path:url(#SVGID_00000109737141476863553040000013881307986479226260_);fill:#00ADEE;}
	.st19{clip-path:url(#SVGID_00000109737141476863553040000013881307986479226260_);fill:#FFFFFF;}
	.st20{clip-path:url(#SVGID_00000109737141476863553040000013881307986479226260_);fill:#3DC6F3;}
	.st21{clip-path:url(#SVGID_00000109737141476863553040000013881307986479226260_);fill:#67C190;}
	.st22{clip-path:url(#SVGID_00000109737141476863553040000013881307986479226260_);fill:#82CAA9;}
	.st23{fill:#00B0D8;}
	.st24{fill:#0756A6;stroke:#0756A6;stroke-width:0.2687;}
</style>
<g>
	<g>
		
			<radialGradient id="SVGID_1_" cx="627.7932" cy="26.9991" r="22.1673" gradientTransform="matrix(-1 0 0 1 660.8057 0)" gradientUnits="userSpaceOnUse">
			<stop  offset="0" style="stop-color:#FFF100"/>
			<stop  offset="1" style="stop-color:#E76E33"/>
		</radialGradient>
		<path class="st0" d="M41.88,7.48c0,0,7.64,1.13,9.45,7.24c0,0,3.17,1.64,3,5.77c0,0,2.32,3.34,0.91,6.05
			c-1.41,2.72-1.53,3.17-3.45,3.79c0,0-2.77,2.83-7.75-1.02c0,0-0.06,6.62-5.88,6.39c0,0-2.43,2.43-6.16-0.9c0,0-1.7,3.11-5.32,2.55
			c0,0-1.81,2.04-3.34,5.37c-1.53,3.34-0.34,5.94-0.34,5.94s-3-4.13-2.21-9.56c0,0-3.56-0.51-4.75-3.39c0,0-4.47-1.19-4.13-4.41
			c0,0-2.32-3.05-1.3-6.22c0,0-1.13-4.02,1.64-5.77c0,0,0.11-4.24,2.66-4.86c0,0,0.96-2.83,3.28-3.56c0,0,1.13-3.56,4.47-3.39
			c0,0,2.49-2.21,4.19-1.47c0,0,3.17-1.37,5.49-0.15c0,0,2.09-0.98,4.13,0.32C36.45,6.17,40.41,5.27,41.88,7.48z"/>
		<g>
			<path class="st1" d="M45.35,30.21c0.33,0.13,0.69,0.26,1.06,0.4c0.65,0.25,1.22,0.46,1.72,0.65
				C47.33,31.14,46.4,30.83,45.35,30.21z"/>
			<path class="st1" d="M11.99,32.43l5.61-2.62c0.32,0.34,0.84,0.42,1.24,0.15c0.05-0.03,0.1-0.07,0.14-0.12l5.56,2.91
				c-0.04,0.24,0,0.49,0.15,0.7c0.01,0.02,0.03,0.04,0.05,0.05l-1.62,2.74c-0.07-0.02-0.14-0.03-0.21-0.03
				c-0.53,0-0.96,0.43-0.96,0.96c0,0.11,0.02,0.21,0.06,0.31c-0.52,0.38-1.24,0.92-1.94,1.43c0.44,0.12,0.72,0.16,0.72,0.16
				c0,0.01,0,0.02,0,0.03c0.58-0.43,1.14-0.84,1.56-1.16c0.16,0.11,0.35,0.18,0.56,0.18c0.53,0,0.96-0.43,0.96-0.96
				c0-0.25-0.09-0.47-0.25-0.64l1.6-2.71c0.26,0.08,0.56,0.05,0.81-0.12c0.16-0.11,0.28-0.26,0.35-0.43l7.7,1.13
				c0.08,0.46,0.47,0.81,0.95,0.81c0.13,0,0.25-0.03,0.36-0.07l1.11,1.34c0.23-0.04,0.43-0.1,0.62-0.17l-1.28-1.54
				c0.1-0.15,0.15-0.33,0.15-0.52c0-0.53-0.43-0.96-0.96-0.96c-0.38,0-0.7,0.22-0.86,0.54l-7.73-1.14
				c-0.02-0.11-0.07-0.22-0.14-0.32c-0.09-0.13-0.21-0.23-0.34-0.3l0.75-3.8l0.57,0.5c-0.15,0.3-0.15,0.67,0.05,0.97
				c0.3,0.44,0.89,0.56,1.34,0.26c0.12-0.08,0.22-0.18,0.29-0.3c3.14-0.15,8.88-0.41,11.08-0.49c0.13,0.37,0.49,0.64,0.9,0.64
				c0.04,0,0.08-0.01,0.11-0.01l1.01,4.49c0.06-0.05,0.11-0.11,0.16-0.17l-0.98-4.36c0.19-0.06,0.35-0.18,0.46-0.33
				c0.55,0.2,1.34,0.49,2.23,0.82c0.04-0.23,0.06-0.44,0.07-0.6c-0.9-0.34-1.6-0.6-2.11-0.78c0-0.01,0-0.02,0-0.03
				c0-0.05-0.01-0.1-0.02-0.15l10-2.67l2.79,1.52c0.08-0.16,0.17-0.33,0.27-0.52l-2.75-1.5l-1.54-6.46l3.46-0.67
				c-0.05-0.2-0.11-0.38-0.17-0.56l-3.29,0.64l0.54-4.2c-0.05-0.13-0.09-0.26-0.15-0.39l-0.6,4.63l-7.33,1.42
				c-0.06-0.1-0.13-0.19-0.22-0.27l6.1-8.79c-0.05-0.05-0.09-0.09-0.14-0.14l-6.11,8.82c-0.08-0.04-0.17-0.08-0.26-0.1l-0.38-3.97
				c0.05-0.02,0.11-0.05,0.16-0.08c0.43-0.29,0.55-0.87,0.28-1.31l4.14-4.93c-0.18-0.1-0.35-0.19-0.53-0.28l-4.06,4.83
				c-0.24-0.1-0.52-0.1-0.77,0.02l-3.42-3.75c0.18-0.31,0.18-0.7-0.03-1.01c-0.25-0.38-0.72-0.52-1.13-0.37L34.31,5.5
				c-0.26-0.01-0.5,0-0.72,0.03L36.29,9c-0.22,0.32-0.23,0.74-0.01,1.08c0.05,0.08,0.12,0.14,0.19,0.2l-1.28,3.19l-3.64-0.6
				l-3.26-7.33c-0.07,0.01-0.13,0.03-0.19,0.05l3.23,7.24l-4.99-0.82c0.01-0.2-0.04-0.41-0.16-0.59c-0.3-0.44-0.89-0.56-1.33-0.27
				L20.7,7.85c-0.19,0.09-0.37,0.2-0.54,0.32l4.32,3.45c0,0,0,0,0,0l-5.93-1.58c-0.03,0.06-0.06,0.12-0.09,0.18l5.97,1.59
				c-0.04,0.22,0.01,0.46,0.14,0.67l-5.89,7.07c-0.24-0.1-0.52-0.09-0.76,0.02l-3.03-5.13c-0.07,0.02-0.13,0.04-0.19,0.06l3.06,5.18
				c-0.29,0.21-0.42,0.55-0.38,0.89l-6.95,3.36c0.02,0.23,0.05,0.44,0.08,0.61l7.11-3.44c0.12,0.13,0.26,0.21,0.41,0.26v6.89
				c-0.08,0.03-0.17,0.06-0.24,0.11c-0.31,0.21-0.46,0.57-0.42,0.92l-5.47,2.55C11.9,32.04,11.94,32.24,11.99,32.43z M25.49,12.92
				l1.34,6.05l-7.6,1.23c-0.02-0.09-0.06-0.18-0.12-0.27l5.89-7.07C25.16,12.92,25.33,12.93,25.49,12.92z M27.29,21.02
				c-0.27,0.12-0.47,0.35-0.55,0.64l-7.47-1.17c0-0.04,0-0.07,0-0.11l7.61-1.23L27.29,21.02z M27.07,19.13l5.72-0.92c0,0,0,0,0,0.01
				l-4.52,2.95c-0.17-0.13-0.37-0.22-0.6-0.22c-0.07,0-0.13,0.01-0.19,0.02L27.07,19.13z M32.8,17.66c-0.03,0.09-0.05,0.19-0.05,0.3
				c0,0.02,0,0.04,0.01,0.06l-5.73,0.92l-1.35-6.07c0.08-0.03,0.16-0.06,0.23-0.11c0.01-0.01,0.02-0.02,0.04-0.03L32.8,17.66z
				 M33.23,17.13c-0.03,0.02-0.06,0.04-0.09,0.06l-6.85-4.93c0-0.01,0.01-0.03,0.01-0.04l5.12,0.84L33.23,17.13z M35.12,13.66
				L33.78,17C33.76,17,33.73,17,33.71,17c-0.1,0-0.2,0.02-0.3,0.05l-1.76-3.96L35.12,13.66z M35.71,13.76l5.06,0.83
				c0,0.05,0,0.09,0,0.14l-6.33,2.61c-0.04-0.04-0.08-0.08-0.12-0.12L35.71,13.76z M40.9,14.17c-0.04,0.07-0.07,0.15-0.09,0.23
				l-5.02-0.82l1.23-3.07c0.16,0.01,0.32-0.01,0.47-0.08L40.9,14.17z M41.01,15.28l-5.31,5.72l-7.09,0.71
				c0-0.02-0.01-0.04-0.02-0.06l4.52-2.95c0.17,0.13,0.37,0.22,0.6,0.22c0.53,0,0.96-0.43,0.96-0.96c0-0.03-0.01-0.05-0.01-0.08
				L41,15.27C41,15.27,41.01,15.28,41.01,15.28z M35.79,21.19l5.54-0.55l-12.09,7.44L35.79,21.19z M41.9,19.56
				c-0.34,0.15-0.58,0.49-0.59,0.88l-5.32,0.53l5.16-5.56c0.11,0.08,0.24,0.14,0.37,0.17L41.9,19.56z M43.21,20.67
				c0.01-0.04,0.01-0.08,0.02-0.11l7.23-1.4l1.5,6.29L43.21,20.67z M41.18,27.98l1.04-6.57c0.02,0,0.03,0.01,0.05,0.01
				c0.24,0,0.46-0.09,0.63-0.24l8.73,4.77l-9.8,2.62C41.73,28.27,41.48,28.05,41.18,27.98z M29.07,29.02l12.55-7.88
				c0.11,0.11,0.26,0.19,0.41,0.23l-1.04,6.57c-0.02,0-0.03-0.01-0.05-0.01c-0.44,0-0.81,0.3-0.92,0.7
				c-2.26,0.09-7.98,0.35-10.93,0.49C29.08,29.09,29.08,29.06,29.07,29.02z M26.84,27.62l0.94-4.76c0.48-0.06,0.85-0.46,0.85-0.95
				l6.87-0.69l-6.74,7.27c-0.29-0.25-0.71-0.3-1.06-0.12L26.84,27.62z M26.33,27.17l-7.15-6.31c0.03-0.05,0.05-0.11,0.06-0.17
				l7.47,1.17c0,0.02-0.01,0.03-0.01,0.05c0,0.36,0.2,0.67,0.5,0.84L26.33,27.17z M25.1,32.04l-6.22-10.35l7.32,6.14l-0.82,4.13
				C25.29,31.98,25.19,32,25.1,32.04z M18.6,21.36c0.03-0.01,0.07-0.02,0.1-0.04l6.23,10.82c-0.04,0.03-0.08,0.06-0.12,0.1
				l-5.56-2.91c0.04-0.24,0-0.49-0.15-0.7c-0.13-0.19-0.31-0.31-0.51-0.38V21.36z"/>
		</g>
		
			<radialGradient id="SVGID_00000072278058672360728540000006502951849619714463_" cx="618.5168" cy="20.4662" r="0.8941" gradientTransform="matrix(-1 0 0 1 660.8057 0)" gradientUnits="userSpaceOnUse">
			<stop  offset="0" style="stop-color:#F7EA7E"/>
			<stop  offset="1" style="stop-color:#E76E33"/>
		</radialGradient>
		<path style="fill:url(#SVGID_00000072278058672360728540000006502951849619714463_);" d="M41.39,20.47c0,0.49,0.4,0.89,0.89,0.89
			c0.49,0,0.89-0.4,0.89-0.89c0-0.49-0.4-0.89-0.89-0.89C41.8,19.57,41.39,19.97,41.39,20.47z"/>
		
			<radialGradient id="SVGID_00000155106853225662169520000015206667373315252153_" cx="619.0632" cy="14.6051" r="0.8941" gradientTransform="matrix(-1 0 0 1 660.8057 0)" gradientUnits="userSpaceOnUse">
			<stop  offset="0" style="stop-color:#F7EA7E"/>
			<stop  offset="1" style="stop-color:#E76E33"/>
		</radialGradient>
		<path style="fill:url(#SVGID_00000155106853225662169520000015206667373315252153_);" d="M40.85,14.61c0,0.49,0.4,0.89,0.89,0.89
			c0.49,0,0.89-0.4,0.89-0.89c0-0.49-0.4-0.89-0.89-0.89C41.25,13.71,40.85,14.11,40.85,14.61z"/>
		
			<radialGradient id="SVGID_00000085932918306876041810000000070880804548937129_" cx="623.7322" cy="9.489" r="0.8941" gradientTransform="matrix(-1 0 0 1 660.8057 0)" gradientUnits="userSpaceOnUse">
			<stop  offset="0" style="stop-color:#F7EA7E"/>
			<stop  offset="1" style="stop-color:#E76E33"/>
		</radialGradient>
		<path style="fill:url(#SVGID_00000085932918306876041810000000070880804548937129_);" d="M36.18,9.49c0,0.49,0.4,0.89,0.89,0.89
			c0.49,0,0.89-0.4,0.89-0.89c0-0.49-0.4-0.89-0.89-0.89C36.58,8.59,36.18,9,36.18,9.49z"/>
		
			<radialGradient id="SVGID_00000152977264599390381510000017858376998306253198_" cx="627.0602" cy="17.9827" r="0.894" gradientTransform="matrix(-1 0 0 1 660.8057 0)" gradientUnits="userSpaceOnUse">
			<stop  offset="0" style="stop-color:#F7EA7E"/>
			<stop  offset="1" style="stop-color:#E76E33"/>
		</radialGradient>
		<path style="fill:url(#SVGID_00000152977264599390381510000017858376998306253198_);" d="M32.85,17.98c0,0.49,0.4,0.89,0.89,0.89
			c0.49,0,0.89-0.4,0.89-0.89c0-0.49-0.4-0.89-0.89-0.89C33.25,17.09,32.85,17.49,32.85,17.98z"/>
		
			<radialGradient id="SVGID_00000082340051687222031270000018335111206776510360_" cx="635.405" cy="11.9725" r="0.8941" gradientTransform="matrix(-1 0 0 1 660.8057 0)" gradientUnits="userSpaceOnUse">
			<stop  offset="0" style="stop-color:#F7EA7E"/>
			<stop  offset="1" style="stop-color:#E76E33"/>
		</radialGradient>
		<path style="fill:url(#SVGID_00000082340051687222031270000018335111206776510360_);" d="M24.51,11.97c0,0.49,0.4,0.89,0.89,0.89
			c0.49,0,0.89-0.4,0.89-0.89c0-0.49-0.4-0.89-0.89-0.89C24.91,11.08,24.51,11.48,24.51,11.97z"/>
		
			<radialGradient id="SVGID_00000163063771011996356090000005222044806688287390_" cx="642.4582" cy="20.4166" r="0.8941" gradientTransform="matrix(-1 0 0 1 660.8057 0)" gradientUnits="userSpaceOnUse">
			<stop  offset="0" style="stop-color:#F7EA7E"/>
			<stop  offset="1" style="stop-color:#E76E33"/>
		</radialGradient>
		<path style="fill:url(#SVGID_00000163063771011996356090000005222044806688287390_);" d="M17.45,20.42c0,0.49,0.4,0.89,0.89,0.89
			c0.49,0,0.89-0.4,0.89-0.89c0-0.49-0.4-0.89-0.89-0.89C17.85,19.52,17.45,19.92,17.45,20.42z"/>
		
			<radialGradient id="SVGID_00000163039790117177003300000000670626380195827123_" cx="633.1697" cy="21.9067" r="0.8941" gradientTransform="matrix(-1 0 0 1 660.8057 0)" gradientUnits="userSpaceOnUse">
			<stop  offset="0" style="stop-color:#F7EA7E"/>
			<stop  offset="1" style="stop-color:#E76E33"/>
		</radialGradient>
		<path style="fill:url(#SVGID_00000163039790117177003300000000670626380195827123_);" d="M26.74,21.91c0,0.49,0.4,0.89,0.89,0.89
			c0.49,0,0.89-0.4,0.89-0.89s-0.4-0.89-0.89-0.89C27.14,21.01,26.74,21.41,26.74,21.91z"/>
		
			<radialGradient id="SVGID_00000046303468715653626510000010045338425704614807_" cx="619.858" cy="28.96" r="0.8941" gradientTransform="matrix(-1 0 0 1 660.8057 0)" gradientUnits="userSpaceOnUse">
			<stop  offset="0" style="stop-color:#F7EA7E"/>
			<stop  offset="1" style="stop-color:#E76E33"/>
		</radialGradient>
		<path style="fill:url(#SVGID_00000046303468715653626510000010045338425704614807_);" d="M40.05,28.96c0,0.49,0.4,0.89,0.89,0.89
			c0.49,0,0.89-0.4,0.89-0.89c0-0.49-0.4-0.89-0.89-0.89C40.45,28.07,40.05,28.47,40.05,28.96z"/>
		
			<radialGradient id="SVGID_00000126321123414774484330000005212980846569901235_" cx="632.6731" cy="29.2083" r="0.8941" gradientTransform="matrix(-1 0 0 1 660.8057 0)" gradientUnits="userSpaceOnUse">
			<stop  offset="0" style="stop-color:#F7EA7E"/>
			<stop  offset="1" style="stop-color:#E76E33"/>
		</radialGradient>
		<path style="fill:url(#SVGID_00000126321123414774484330000005212980846569901235_);" d="M27.24,29.21c0,0.49,0.4,0.89,0.89,0.89
			c0.49,0,0.89-0.4,0.89-0.89c0-0.49-0.4-0.89-0.89-0.89C27.64,28.31,27.24,28.71,27.24,29.21z"/>
		
			<radialGradient id="SVGID_00000083065609180282319860000003336101811264148115_" cx="625.8186" cy="34.2251" r="0.8941" gradientTransform="matrix(-1 0 0 1 660.8057 0)" gradientUnits="userSpaceOnUse">
			<stop  offset="0" style="stop-color:#F7EA7E"/>
			<stop  offset="1" style="stop-color:#E76E33"/>
		</radialGradient>
		<path style="fill:url(#SVGID_00000083065609180282319860000003336101811264148115_);" d="M34.09,34.23c0,0.49,0.4,0.89,0.89,0.89
			c0.49,0,0.89-0.4,0.89-0.89c0-0.49-0.4-0.89-0.89-0.89C34.49,33.33,34.09,33.73,34.09,34.23z"/>
		
			<radialGradient id="SVGID_00000065777042222483438370000012856834106395177642_" cx="635.3056" cy="32.9336" r="0.8941" gradientTransform="matrix(-1 0 0 1 660.8057 0)" gradientUnits="userSpaceOnUse">
			<stop  offset="0" style="stop-color:#F7EA7E"/>
			<stop  offset="1" style="stop-color:#E76E33"/>
		</radialGradient>
		<path style="fill:url(#SVGID_00000065777042222483438370000012856834106395177642_);" d="M24.61,32.93c0,0.49,0.4,0.89,0.89,0.89
			c0.49,0,0.89-0.4,0.89-0.89c0-0.49-0.4-0.89-0.89-0.89C25.01,32.04,24.61,32.44,24.61,32.93z"/>
		
			<radialGradient id="SVGID_00000017494099006347543530000010420361541193412244_" cx="642.5079" cy="29.1587" r="0.8941" gradientTransform="matrix(-1 0 0 1 660.8057 0)" gradientUnits="userSpaceOnUse">
			<stop  offset="0" style="stop-color:#F7EA7E"/>
			<stop  offset="1" style="stop-color:#E76E33"/>
		</radialGradient>
		<path style="fill:url(#SVGID_00000017494099006347543530000010420361541193412244_);" d="M17.4,29.16c0,0.49,0.4,0.89,0.89,0.89
			c0.49,0,0.89-0.4,0.89-0.89c0-0.49-0.4-0.89-0.89-0.89C17.8,28.26,17.4,28.66,17.4,29.16z"/>
		
			<radialGradient id="SVGID_00000054266690420905121220000001825564821258784699_" cx="637.8719" cy="37.1557" r="0.8941" gradientTransform="matrix(-1 0 0 1 660.8057 0)" gradientUnits="userSpaceOnUse">
			<stop  offset="0" style="stop-color:#F7EA7E"/>
			<stop  offset="1" style="stop-color:#E76E33"/>
		</radialGradient>
		<path style="fill:url(#SVGID_00000054266690420905121220000001825564821258784699_);" d="M22.04,37.16c0,0.49,0.4,0.89,0.89,0.89
			c0.49,0,0.89-0.4,0.89-0.89c0-0.49-0.4-0.89-0.89-0.89C22.44,36.26,22.04,36.66,22.04,37.16z"/>
	</g>
	<g>
		<g>
			<defs>
				<path id="SVGID_00000173147007936885321570000004123178303745330334_" d="M41.81,7.46c0,0,7.64,1.13,9.45,7.24
					c0,0,3.17,1.64,3,5.77c0,0,2.32,3.34,0.91,6.05c-1.41,2.72-1.53,3.17-3.45,3.79c0,0-2.77,2.83-7.75-1.02
					c0,0-0.06,6.62-5.88,6.39c0,0-2.43,2.43-6.17-0.91c0,0-1.7,3.11-5.32,2.54c0,0-1.81,2.04-3.34,5.37
					c-1.53,3.34-0.34,5.94-0.34,5.94s-3-4.13-2.21-9.56c0,0-3.56-0.51-4.75-3.39c0,0-4.47-1.19-4.13-4.41c0,0-2.32-3.05-1.3-6.22
					c0,0-1.13-4.02,1.64-5.77c0,0,0.11-4.24,2.66-4.86c0,0,0.96-2.83,3.28-3.56c0,0,1.13-3.56,4.47-3.39c0,0,2.49-2.21,4.19-1.47
					c0,0,3.17-1.37,5.49-0.15c0,0,2.09-0.98,4.13,0.32C36.38,6.16,40.34,5.26,41.81,7.46z"/>
			</defs>
			<clipPath id="SVGID_00000078764060461223541720000016319074535514195586_">
				<use xlink:href="#SVGID_00000173147007936885321570000004123178303745330334_"  style="overflow:visible;"/>
			</clipPath>
			<path style="clip-path:url(#SVGID_00000078764060461223541720000016319074535514195586_);fill:#00B0D8;" d="M25.34,14.36
				l0.02-0.01c0,0-0.46-0.06-0.43-0.51c0.03-0.43,0.27-0.68,0.2-1.11c-0.11-0.59-0.68-0.98-1.27-0.88
				c-0.59,0.11-0.98,0.68-0.88,1.27c0.08,0.42,0.43,0.62,0.59,0.96c0.22,0.47-0.19,0.63-0.19,0.63l0.02,0l-2.45,0.45l-0.45-2.45
				l0,0.02c0,0-0.15-0.41-0.63-0.19c-0.35,0.16-0.54,0.51-0.96,0.59c-0.59,0.11-1.16-0.28-1.27-0.88c-0.11-0.59,0.28-1.16,0.88-1.27
				c0.42-0.08,0.68,0.16,1.1,0.2c0.46,0.03,0.51-0.43,0.51-0.43l0.01,0.02l-0.44-2.41l2.41-0.44c0.09,0.02,0.43,0.12,0.41,0.51
				c-0.03,0.43-0.27,0.68-0.2,1.11c0.11,0.59,0.68,0.98,1.27,0.88c0.59-0.11,0.98-0.68,0.88-1.27c-0.08-0.42-0.43-0.62-0.59-0.96
				c-0.18-0.4,0.07-0.57,0.16-0.61l2.46-0.45l0.45,2.45l0-0.02c0,0,0.15,0.41,0.63,0.19c0.35-0.16,0.54-0.51,0.96-0.59
				c0.59-0.11,1.16,0.28,1.27,0.88c0.11,0.59-0.28,1.16-0.88,1.27c-0.42,0.08-0.68-0.16-1.11-0.2c-0.46-0.03-0.51,0.43-0.51,0.43
				l-0.01-0.02l0.44,2.41L25.34,14.36z"/>
			<path style="clip-path:url(#SVGID_00000078764060461223541720000016319074535514195586_);fill:#AEDEE4;" d="M18.75,20.98
				l0.02,0.01c0,0-0.16-0.44,0.26-0.62c0.39-0.17,0.73-0.07,1.07-0.33c0.48-0.37,0.56-1.05,0.2-1.53c-0.37-0.48-1.05-0.57-1.53-0.2
				c-0.34,0.26-0.35,0.66-0.59,0.96c-0.32,0.41-0.64,0.12-0.64,0.12l0,0.02l-1.52-1.97l1.97-1.52l-0.02,0c0,0,0.29-0.32-0.12-0.64
				c-0.3-0.23-0.7-0.24-0.96-0.59c-0.37-0.48-0.28-1.16,0.2-1.53c0.48-0.37,1.16-0.28,1.53,0.2c0.26,0.34,0.16,0.68,0.33,1.07
				c0.18,0.42,0.62,0.26,0.62,0.26l-0.01,0.02l1.94-1.49l1.5,1.94c0.03,0.09,0.1,0.44-0.27,0.59c-0.39,0.17-0.73,0.07-1.07,0.33
				c-0.48,0.37-0.57,1.05-0.2,1.53c0.37,0.48,1.05,0.57,1.53,0.2c0.34-0.26,0.35-0.66,0.59-0.96c0.27-0.34,0.54-0.2,0.62-0.14
				l1.53,1.98l-1.97,1.52l0.02-0.01c0,0-0.3,0.32,0.12,0.65c0.3,0.23,0.7,0.24,0.96,0.59c0.37,0.48,0.28,1.16-0.2,1.53
				c-0.48,0.37-1.16,0.28-1.53-0.2c-0.26-0.34-0.16-0.68-0.33-1.07c-0.18-0.42-0.62-0.26-0.62-0.26l0.01-0.02l-1.94,1.49
				L18.75,20.98z"/>
			<path style="clip-path:url(#SVGID_00000078764060461223541720000016319074535514195586_);fill:#57B6DD;" d="M20.43,26.09
				l0.01,0.02c0,0,0.14-0.44,0.58-0.33c0.42,0.11,0.62,0.39,1.05,0.39c0.6,0,1.09-0.49,1.09-1.09c0-0.6-0.49-1.09-1.09-1.09
				c-0.43,0-0.68,0.31-1.05,0.4c-0.51,0.13-0.58-0.3-0.58-0.3l-0.01,0.02v-2.49h2.49l-0.02-0.01c0,0,0.43-0.08,0.3-0.58
				c-0.1-0.37-0.4-0.62-0.4-1.05c0-0.6,0.49-1.09,1.09-1.09c0.6,0,1.09,0.49,1.09,1.09c0,0.43-0.28,0.64-0.39,1.05
				c-0.11,0.44,0.33,0.58,0.33,0.58l-0.02,0.01h2.45v2.45c-0.04,0.09-0.19,0.4-0.57,0.31c-0.42-0.11-0.62-0.39-1.05-0.39
				c-0.6,0-1.09,0.49-1.09,1.09c0,0.6,0.49,1.09,1.09,1.09c0.43,0,0.68-0.31,1.05-0.4c0.42-0.11,0.54,0.17,0.57,0.27v2.5h-2.49
				l0.02,0.01c0,0-0.43,0.08-0.3,0.58c0.1,0.37,0.4,0.62,0.4,1.05c0,0.6-0.49,1.09-1.09,1.09c-0.6,0-1.09-0.49-1.09-1.09
				c0-0.43,0.28-0.64,0.39-1.05c0.11-0.44-0.33-0.58-0.33-0.58l0.02-0.01h-2.45V26.09z"/>
			<path style="clip-path:url(#SVGID_00000078764060461223541720000016319074535514195586_);fill:#00ADEE;" d="M13.38,22.36
				l0.02-0.01c0,0-0.44-0.15-0.32-0.59c0.12-0.41,0.4-0.61,0.41-1.04c0.01-0.6-0.47-1.1-1.07-1.11c-0.6-0.01-1.1,0.47-1.11,1.07
				c-0.01,0.43,0.29,0.69,0.38,1.06c0.12,0.51-0.31,0.58-0.31,0.58l0.02,0.01l-2.49-0.05l0.05-2.49l-0.01,0.02
				c0,0-0.07-0.43-0.58-0.31C8,19.58,7.75,19.89,7.31,19.88c-0.6-0.01-1.08-0.51-1.07-1.11c0.01-0.6,0.51-1.08,1.11-1.07
				c0.43,0.01,0.63,0.3,1.04,0.41c0.44,0.12,0.59-0.32,0.59-0.32L9,17.81l0.05-2.45l2.45,0.05c0.09,0.04,0.4,0.2,0.3,0.58
				c-0.11,0.41-0.4,0.61-0.41,1.04c-0.01,0.6,0.47,1.1,1.07,1.11c0.6,0.01,1.1-0.47,1.11-1.07c0.01-0.43-0.3-0.69-0.38-1.06
				c-0.1-0.42,0.18-0.54,0.28-0.57l2.5,0.05l-0.05,2.49l0.01-0.02c0,0,0.07,0.43,0.58,0.31c0.37-0.09,0.63-0.39,1.06-0.38
				c0.6,0.01,1.08,0.51,1.07,1.11c-0.01,0.6-0.51,1.08-1.11,1.07c-0.43-0.01-0.63-0.3-1.04-0.41c-0.44-0.12-0.59,0.32-0.59,0.32
				l-0.01-0.02l-0.05,2.45L13.38,22.36z"/>
			<path style="clip-path:url(#SVGID_00000078764060461223541720000016319074535514195586_);fill:#00ADEE;" d="M22.49,38.46
				l0.01,0.02c0,0,0.14-0.44,0.58-0.33c0.42,0.11,0.62,0.39,1.05,0.39c0.6,0,1.09-0.49,1.09-1.09c0-0.6-0.49-1.09-1.09-1.09
				c-0.43,0-0.68,0.31-1.05,0.4c-0.51,0.13-0.58-0.3-0.58-0.3l-0.01,0.02V34h2.49l-0.02-0.01c0,0,0.43-0.08,0.3-0.58
				c-0.1-0.37-0.4-0.62-0.4-1.05c0-0.6,0.49-1.09,1.09-1.09c0.6,0,1.09,0.49,1.09,1.09c0,0.43-0.28,0.64-0.39,1.05
				c-0.11,0.44,0.33,0.58,0.33,0.58L26.96,34h2.45v2.45c-0.03,0.09-0.19,0.41-0.57,0.31c-0.42-0.11-0.62-0.39-1.05-0.39
				c-0.6,0-1.09,0.49-1.09,1.09c0,0.6,0.49,1.09,1.09,1.09c0.43,0,0.68-0.31,1.05-0.4c0.42-0.11,0.54,0.17,0.57,0.27v2.5h-2.49
				l0.02,0.01c0,0-0.43,0.08-0.3,0.58c0.1,0.37,0.4,0.62,0.4,1.05c0,0.6-0.49,1.09-1.09,1.09c-0.6,0-1.09-0.49-1.09-1.09
				c0-0.43,0.28-0.64,0.39-1.05c0.11-0.44-0.33-0.58-0.33-0.58l0.02-0.01h-2.45V38.46z"/>
			<path style="clip-path:url(#SVGID_00000078764060461223541720000016319074535514195586_);fill:#00B0D8;" d="M19.74,48.02
				L19.75,48c0,0-0.46,0.02-0.5-0.44c-0.04-0.43,0.16-0.71,0.02-1.12c-0.2-0.57-0.82-0.87-1.39-0.67c-0.57,0.2-0.87,0.82-0.67,1.39
				c0.14,0.41,0.52,0.54,0.73,0.86c0.29,0.43-0.09,0.65-0.09,0.65l0.02,0l-2.35,0.83l-0.83-2.35l0,0.02c0,0-0.22-0.38-0.65-0.09
				c-0.32,0.21-0.45,0.59-0.86,0.73c-0.57,0.2-1.19-0.1-1.39-0.67c-0.2-0.57,0.1-1.19,0.67-1.39c0.41-0.14,0.69,0.06,1.12,0.02
				c0.46-0.04,0.44-0.5,0.44-0.5l0.01,0.02l-0.81-2.31l2.31-0.81c0.09,0,0.45,0.05,0.48,0.44c0.04,0.43-0.16,0.71-0.02,1.12
				c0.2,0.57,0.82,0.87,1.39,0.67c0.57-0.2,0.87-0.82,0.67-1.39c-0.14-0.41-0.52-0.54-0.73-0.86c-0.24-0.36-0.02-0.57,0.06-0.63
				l2.36-0.83l0.83,2.35l0-0.02c0,0,0.22,0.38,0.65,0.09c0.32-0.21,0.45-0.59,0.86-0.73c0.57-0.2,1.19,0.1,1.39,0.67
				c0.2,0.57-0.1,1.19-0.67,1.39c-0.41,0.14-0.69-0.06-1.12-0.02c-0.46,0.04-0.44,0.5-0.44,0.5l-0.01-0.02l0.81,2.31L19.74,48.02z"
				/>
			<path style="clip-path:url(#SVGID_00000078764060461223541720000016319074535514195586_);fill:#AEDEE4;" d="M13.49,50.92
				l-0.01,0.02c0,0,0.39-0.25,0.66,0.12c0.25,0.35,0.23,0.7,0.56,0.97c0.46,0.38,1.15,0.32,1.53-0.15c0.38-0.46,0.32-1.15-0.15-1.53
				c-0.33-0.27-0.72-0.2-1.07-0.36c-0.47-0.22-0.26-0.6-0.26-0.6l-0.02,0.01l1.58-1.92l1.92,1.58l-0.01-0.02c0,0,0.38,0.22,0.6-0.26
				c0.16-0.35,0.08-0.74,0.36-1.07c0.38-0.46,1.07-0.53,1.53-0.15c0.46,0.38,0.53,1.07,0.15,1.53c-0.27,0.33-0.62,0.31-0.97,0.56
				c-0.37,0.27-0.12,0.66-0.12,0.66l-0.02-0.01l1.89,1.56l-1.56,1.89c-0.08,0.05-0.41,0.19-0.64-0.13c-0.25-0.35-0.23-0.7-0.56-0.97
				c-0.46-0.38-1.15-0.32-1.53,0.15c-0.38,0.46-0.32,1.15,0.15,1.53c0.33,0.27,0.72,0.2,1.07,0.36c0.39,0.18,0.31,0.48,0.27,0.57
				l-1.59,1.93l-1.92-1.58l0.01,0.02c0,0-0.38-0.22-0.6,0.26c-0.16,0.35-0.08,0.74-0.36,1.07c-0.38,0.46-1.07,0.53-1.53,0.15
				c-0.46-0.38-0.53-1.07-0.15-1.53c0.27-0.33,0.62-0.31,0.97-0.56c0.37-0.27,0.12-0.66,0.12-0.66l0.02,0.01l-1.89-1.56L13.49,50.92
				z"/>
			<path style="clip-path:url(#SVGID_00000078764060461223541720000016319074535514195586_);fill:#FFFFFF;" d="M50.16,10.81
				l0.01,0.02c0,0,0.14-0.44,0.58-0.33c0.42,0.11,0.62,0.39,1.05,0.39c0.6,0,1.09-0.49,1.09-1.09c0-0.6-0.49-1.09-1.09-1.09
				c-0.43,0-0.68,0.31-1.05,0.4c-0.51,0.13-0.58-0.3-0.58-0.3l-0.01,0.02V6.34h2.49l-0.02-0.01c0,0,0.43-0.08,0.3-0.58
				c-0.1-0.37-0.4-0.62-0.4-1.05c0-0.6,0.49-1.09,1.09-1.09c0.6,0,1.09,0.49,1.09,1.09c0,0.43-0.28,0.64-0.39,1.05
				c-0.11,0.44,0.33,0.58,0.33,0.58l-0.02,0.01h2.45v2.45C57.04,8.88,56.89,9.2,56.5,9.1c-0.42-0.11-0.62-0.39-1.05-0.39
				c-0.6,0-1.09,0.49-1.09,1.09c0,0.6,0.49,1.09,1.09,1.09c0.43,0,0.68-0.31,1.05-0.4c0.42-0.11,0.54,0.17,0.57,0.27v2.5h-2.49
				l0.02,0.01c0,0-0.43,0.08-0.3,0.58c0.1,0.37,0.4,0.62,0.4,1.05c0,0.6-0.49,1.09-1.09,1.09c-0.6,0-1.09-0.49-1.09-1.09
				c0-0.43,0.28-0.64,0.39-1.05c0.11-0.44-0.33-0.58-0.33-0.58l0.02-0.01h-2.45V10.81z"/>
			<path style="clip-path:url(#SVGID_00000078764060461223541720000016319074535514195586_);fill:#AEDEE4;" d="M47.71,13.26
				l0.02-0.01c0,0-0.44-0.14-0.33-0.58c0.11-0.42,0.39-0.62,0.39-1.05c0-0.6-0.49-1.09-1.09-1.09c-0.6,0-1.09,0.49-1.09,1.09
				c0,0.43,0.31,0.68,0.4,1.05c0.13,0.51-0.3,0.58-0.3,0.58l0.02,0.01h-2.49v-2.49l-0.01,0.02c0,0-0.08-0.43-0.58-0.3
				c-0.37,0.1-0.62,0.4-1.05,0.4c-0.6,0-1.09-0.49-1.09-1.09c0-0.6,0.49-1.09,1.09-1.09c0.43,0,0.64,0.28,1.05,0.39
				c0.44,0.11,0.58-0.33,0.58-0.33l0.01,0.02V6.34h2.45C45.79,6.38,46.1,6.53,46,6.92c-0.11,0.42-0.39,0.62-0.39,1.05
				c0,0.6,0.49,1.09,1.09,1.09c0.6,0,1.09-0.49,1.09-1.09c0-0.43-0.31-0.68-0.4-1.05c-0.11-0.42,0.17-0.54,0.27-0.57h2.5v2.49
				l0.01-0.02c0,0,0.08,0.43,0.58,0.3c0.37-0.1,0.62-0.4,1.05-0.4c0.6,0,1.09,0.49,1.09,1.09c0,0.6-0.49,1.09-1.09,1.09
				c-0.43,0-0.64-0.28-1.05-0.39c-0.44-0.11-0.58,0.33-0.58,0.33l-0.01-0.02v2.45H47.71z"/>
			<path style="clip-path:url(#SVGID_00000078764060461223541720000016319074535514195586_);fill:#57B6DD;" d="M36.32,10.81
				l0.01,0.02c0,0,0.14-0.44,0.58-0.33c0.42,0.11,0.62,0.39,1.05,0.39c0.6,0,1.09-0.49,1.09-1.09c0-0.6-0.49-1.09-1.09-1.09
				c-0.43,0-0.68,0.31-1.05,0.4c-0.51,0.13-0.58-0.3-0.58-0.3l-0.01,0.02V6.34h2.49l-0.02-0.01c0,0,0.43-0.08,0.3-0.58
				c-0.1-0.37-0.4-0.62-0.4-1.05c0-0.6,0.49-1.09,1.09-1.09c0.6,0,1.09,0.49,1.09,1.09c0,0.43-0.28,0.64-0.39,1.05
				c-0.11,0.44,0.33,0.58,0.33,0.58l-0.02,0.01h2.45v2.45C43.2,8.88,43.05,9.2,42.66,9.1c-0.42-0.11-0.62-0.39-1.05-0.39
				c-0.6,0-1.09,0.49-1.09,1.09c0,0.6,0.49,1.09,1.09,1.09c0.43,0,0.68-0.31,1.05-0.4c0.42-0.11,0.54,0.17,0.57,0.27v2.5h-2.49
				l0.02,0.01c0,0-0.43,0.08-0.3,0.58c0.1,0.37,0.4,0.62,0.4,1.05c0,0.6-0.49,1.09-1.09,1.09c-0.6,0-1.09-0.49-1.09-1.09
				c0-0.43,0.28-0.64,0.39-1.05c0.11-0.44-0.33-0.58-0.33-0.58l0.02-0.01h-2.45V10.81z"/>
			<path style="clip-path:url(#SVGID_00000078764060461223541720000016319074535514195586_);fill:#57B6DD;" d="M54.63,20.17
				l0.02-0.01c0,0-0.44-0.14-0.33-0.58c0.11-0.42,0.39-0.62,0.39-1.05c0-0.6-0.49-1.09-1.09-1.09s-1.09,0.49-1.09,1.09
				c0,0.43,0.31,0.68,0.4,1.05c0.13,0.51-0.3,0.58-0.3,0.58l0.02,0.01h-2.49v-2.49l-0.01,0.02c0,0-0.08-0.43-0.58-0.3
				c-0.37,0.1-0.62,0.4-1.05,0.4c-0.6,0-1.09-0.49-1.09-1.09c0-0.6,0.49-1.09,1.09-1.09c0.43,0,0.64,0.28,1.05,0.39
				c0.44,0.11,0.58-0.33,0.58-0.33l0.01,0.02v-2.45h2.45c0.09,0.04,0.41,0.19,0.31,0.57c-0.11,0.42-0.39,0.62-0.39,1.05
				c0,0.6,0.49,1.09,1.09,1.09s1.09-0.49,1.09-1.09c0-0.43-0.31-0.68-0.4-1.05c-0.11-0.42,0.17-0.55,0.27-0.57h2.5v2.49l0.01-0.02
				c0,0,0.08,0.43,0.58,0.3c0.37-0.1,0.62-0.4,1.05-0.4c0.6,0,1.09,0.49,1.09,1.09c0,0.6-0.49,1.09-1.09,1.09
				c-0.43,0-0.64-0.28-1.05-0.39c-0.44-0.11-0.58,0.33-0.58,0.33l-0.01-0.02v2.45H54.63z"/>
			<path style="clip-path:url(#SVGID_00000078764060461223541720000016319074535514195586_);fill:#00B0D8;" d="M43.24,17.72
				l0.01,0.02c0,0,0.14-0.44,0.58-0.33c0.42,0.11,0.62,0.39,1.05,0.39c0.6,0,1.09-0.49,1.09-1.09c0-0.6-0.49-1.09-1.09-1.09
				c-0.43,0-0.68,0.31-1.05,0.4c-0.51,0.13-0.58-0.3-0.58-0.3l-0.01,0.02v-2.49h2.49l-0.02-0.01c0,0,0.43-0.08,0.3-0.58
				c-0.1-0.37-0.4-0.62-0.4-1.05c0-0.6,0.49-1.09,1.09-1.09c0.6,0,1.09,0.49,1.09,1.09c0,0.43-0.28,0.64-0.39,1.05
				c-0.11,0.44,0.33,0.58,0.33,0.58l-0.02,0.01h2.45v2.45c-0.04,0.09-0.19,0.41-0.57,0.31c-0.42-0.11-0.62-0.39-1.05-0.39
				c-0.6,0-1.09,0.49-1.09,1.09c0,0.6,0.49,1.09,1.09,1.09c0.43,0,0.68-0.31,1.05-0.4c0.42-0.11,0.54,0.17,0.57,0.27v2.5h-2.49
				l0.02,0.01c0,0-0.43,0.08-0.3,0.58c0.1,0.37,0.4,0.62,0.4,1.05c0,0.6-0.49,1.09-1.09,1.09c-0.6,0-1.09-0.49-1.09-1.09
				c0-0.43,0.28-0.64,0.39-1.05c0.11-0.44-0.33-0.58-0.33-0.58l0.02-0.01h-2.45V17.72z"/>
			<path style="clip-path:url(#SVGID_00000078764060461223541720000016319074535514195586_);fill:#57B6DD;" d="M61.54,27.08
				l0.02-0.01c0,0-0.44-0.14-0.33-0.58c0.11-0.42,0.39-0.62,0.39-1.05c0-0.6-0.49-1.09-1.09-1.09c-0.6,0-1.09,0.49-1.09,1.09
				c0,0.43,0.31,0.68,0.4,1.05c0.13,0.51-0.3,0.58-0.3,0.58l0.02,0.01h-2.49v-2.49l-0.01,0.02c0,0-0.08-0.43-0.58-0.3
				c-0.37,0.1-0.62,0.4-1.05,0.4c-0.6,0-1.09-0.49-1.09-1.09c0-0.6,0.49-1.09,1.09-1.09c0.43,0,0.64,0.28,1.05,0.39
				c0.44,0.11,0.58-0.33,0.58-0.33l0.01,0.02v-2.45h2.45c0.09,0.04,0.41,0.19,0.31,0.57c-0.11,0.42-0.39,0.62-0.39,1.05
				c0,0.6,0.49,1.09,1.09,1.09c0.6,0,1.09-0.49,1.09-1.09c0-0.43-0.31-0.68-0.4-1.05c-0.11-0.42,0.17-0.54,0.27-0.57h2.5v2.49
				L64,22.64c0,0,0.08,0.43,0.58,0.3c0.37-0.1,0.62-0.4,1.05-0.4c0.6,0,1.09,0.49,1.09,1.09c0,0.6-0.49,1.09-1.09,1.09
				c-0.43,0-0.64-0.28-1.05-0.39C64.14,24.21,64,24.65,64,24.65l-0.01-0.02v2.45H61.54z"/>
			<path style="clip-path:url(#SVGID_00000078764060461223541720000016319074535514195586_);fill:#AEDEE4;" d="M50.16,24.63
				l0.01,0.02c0,0,0.14-0.44,0.58-0.33c0.42,0.11,0.62,0.39,1.05,0.39c0.6,0,1.09-0.49,1.09-1.09c0-0.6-0.49-1.09-1.09-1.09
				c-0.43,0-0.68,0.31-1.05,0.4c-0.51,0.13-0.58-0.3-0.58-0.3l-0.01,0.02v-2.49h2.49l-0.02-0.01c0,0,0.43-0.08,0.3-0.58
				c-0.1-0.37-0.4-0.62-0.4-1.05c0-0.6,0.49-1.09,1.09-1.09c0.6,0,1.09,0.49,1.09,1.09c0,0.43-0.28,0.64-0.39,1.05
				c-0.11,0.44,0.33,0.58,0.33,0.58l-0.02,0.01h2.45v2.45c-0.04,0.09-0.19,0.41-0.57,0.31c-0.42-0.11-0.62-0.39-1.05-0.39
				c-0.6,0-1.09,0.49-1.09,1.09c0,0.6,0.49,1.09,1.09,1.09c0.43,0,0.68-0.31,1.05-0.4c0.42-0.11,0.54,0.17,0.57,0.27v2.5h-2.49
				l0.02,0.01c0,0-0.43,0.08-0.3,0.58c0.1,0.37,0.4,0.62,0.4,1.05c0,0.6-0.49,1.09-1.09,1.09c-0.6,0-1.09-0.49-1.09-1.09
				c0-0.43,0.28-0.64,0.39-1.05c0.11-0.44-0.33-0.58-0.33-0.58l0.02-0.01h-2.45V24.63z"/>
			<path style="clip-path:url(#SVGID_00000078764060461223541720000016319074535514195586_);fill:#FFFFFF;" d="M47.71,27.08
				l0.02-0.01c0,0-0.44-0.14-0.33-0.58c0.11-0.42,0.39-0.62,0.39-1.05c0-0.6-0.49-1.09-1.09-1.09c-0.6,0-1.09,0.49-1.09,1.09
				c0,0.43,0.31,0.68,0.4,1.05c0.13,0.51-0.3,0.58-0.3,0.58l0.02,0.01h-2.49v-2.49l-0.01,0.02c0,0-0.08-0.43-0.58-0.3
				c-0.37,0.1-0.62,0.4-1.05,0.4c-0.6,0-1.09-0.49-1.09-1.09c0-0.6,0.49-1.09,1.09-1.09c0.43,0,0.64,0.28,1.05,0.39
				c0.44,0.11,0.58-0.33,0.58-0.33l0.01,0.02v-2.45h2.45c0.09,0.04,0.41,0.19,0.31,0.57c-0.11,0.42-0.39,0.62-0.39,1.05
				c0,0.6,0.49,1.09,1.09,1.09c0.6,0,1.09-0.49,1.09-1.09c0-0.43-0.31-0.68-0.4-1.05c-0.11-0.42,0.17-0.54,0.27-0.57h2.5v2.49
				l0.01-0.02c0,0,0.08,0.43,0.58,0.3c0.37-0.1,0.62-0.4,1.05-0.4c0.6,0,1.09,0.49,1.09,1.09c0,0.6-0.49,1.09-1.09,1.09
				c-0.43,0-0.64-0.28-1.05-0.39c-0.44-0.11-0.58,0.33-0.58,0.33l-0.01-0.02v2.45H47.71z"/>
			<path style="clip-path:url(#SVGID_00000078764060461223541720000016319074535514195586_);fill:#3DC6F3;" d="M36.32,24.63
				l0.01,0.02c0,0,0.14-0.44,0.58-0.33c0.42,0.11,0.62,0.39,1.05,0.39c0.6,0,1.09-0.49,1.09-1.09c0-0.6-0.49-1.09-1.09-1.09
				c-0.43,0-0.68,0.31-1.05,0.4c-0.51,0.13-0.58-0.3-0.58-0.3l-0.01,0.02v-2.49h2.49l-0.02-0.01c0,0,0.43-0.08,0.3-0.58
				c-0.1-0.37-0.4-0.62-0.4-1.05c0-0.6,0.49-1.09,1.09-1.09c0.6,0,1.09,0.49,1.09,1.09c0,0.43-0.28,0.64-0.39,1.05
				c-0.11,0.44,0.33,0.58,0.33,0.58l-0.02,0.01h2.45v2.45c-0.04,0.09-0.19,0.41-0.57,0.31c-0.42-0.11-0.62-0.39-1.05-0.39
				c-0.6,0-1.09,0.49-1.09,1.09c0,0.6,0.49,1.09,1.09,1.09c0.43,0,0.68-0.31,1.05-0.4c0.42-0.11,0.54,0.17,0.57,0.27v2.5h-2.49
				l0.02,0.01c0,0-0.43,0.08-0.3,0.58c0.1,0.37,0.4,0.62,0.4,1.05c0,0.6-0.49,1.09-1.09,1.09c-0.6,0-1.09-0.49-1.09-1.09
				c0-0.43,0.28-0.64,0.39-1.05c0.11-0.44-0.33-0.58-0.33-0.58l0.02-0.01h-2.45V24.63z"/>
			<path style="clip-path:url(#SVGID_00000078764060461223541720000016319074535514195586_);fill:#67C190;" d="M54.63,34l0.02-0.01
				c0,0-0.44-0.14-0.33-0.58c0.11-0.42,0.39-0.62,0.39-1.05c0-0.6-0.49-1.09-1.09-1.09s-1.09,0.49-1.09,1.09
				c0,0.43,0.31,0.68,0.4,1.05c0.13,0.51-0.3,0.58-0.3,0.58L52.65,34h-2.49v-2.49l-0.01,0.02c0,0-0.08-0.43-0.58-0.3
				c-0.37,0.1-0.62,0.4-1.05,0.4c-0.6,0-1.09-0.49-1.09-1.09c0-0.6,0.49-1.09,1.09-1.09c0.43,0,0.64,0.28,1.05,0.39
				c0.44,0.11,0.58-0.33,0.58-0.33l0.01,0.02v-2.45h2.45c0.09,0.04,0.41,0.19,0.31,0.57c-0.11,0.42-0.39,0.62-0.39,1.05
				c0,0.6,0.49,1.09,1.09,1.09s1.09-0.49,1.09-1.09c0-0.43-0.31-0.68-0.4-1.05c-0.11-0.42,0.17-0.54,0.27-0.57h2.5v2.49l0.01-0.02
				c0,0,0.08,0.43,0.58,0.3c0.37-0.1,0.62-0.4,1.05-0.4c0.6,0,1.09,0.49,1.09,1.09c0,0.6-0.49,1.09-1.09,1.09
				c-0.43,0-0.64-0.28-1.05-0.39c-0.44-0.11-0.58,0.33-0.58,0.33l-0.01-0.02V34H54.63z"/>
			<path style="clip-path:url(#SVGID_00000078764060461223541720000016319074535514195586_);fill:#57B6DD;" d="M43.24,31.55
				l0.01,0.02c0,0,0.14-0.44,0.58-0.33c0.42,0.11,0.62,0.39,1.05,0.39c0.6,0,1.09-0.49,1.09-1.09c0-0.6-0.49-1.09-1.09-1.09
				c-0.43,0-0.68,0.31-1.05,0.4c-0.51,0.13-0.58-0.3-0.58-0.3l-0.01,0.02v-2.49h2.49l-0.02-0.01c0,0,0.43-0.08,0.3-0.58
				c-0.1-0.37-0.4-0.62-0.4-1.05c0-0.6,0.49-1.09,1.09-1.09c0.6,0,1.09,0.49,1.09,1.09c0,0.43-0.28,0.64-0.39,1.05
				c-0.11,0.44,0.33,0.58,0.33,0.58l-0.02,0.01h2.45v2.45c-0.04,0.09-0.19,0.41-0.57,0.31c-0.42-0.11-0.62-0.39-1.05-0.39
				c-0.6,0-1.09,0.49-1.09,1.09c0,0.6,0.49,1.09,1.09,1.09c0.43,0,0.68-0.31,1.05-0.4c0.42-0.11,0.54,0.17,0.57,0.27V34h-2.49
				L47.68,34c0,0-0.43,0.08-0.3,0.58c0.1,0.37,0.4,0.62,0.4,1.05c0,0.6-0.49,1.09-1.09,1.09c-0.6,0-1.09-0.49-1.09-1.09
				c0-0.43,0.28-0.64,0.39-1.05c0.11-0.44-0.33-0.58-0.33-0.58L45.69,34h-2.45V31.55z"/>
			<path style="clip-path:url(#SVGID_00000078764060461223541720000016319074535514195586_);fill:#00B0D8;" d="M40.79,34l0.02-0.01
				c0,0-0.44-0.14-0.33-0.58c0.11-0.42,0.39-0.62,0.39-1.05c0-0.6-0.49-1.09-1.09-1.09c-0.6,0-1.09,0.49-1.09,1.09
				c0,0.43,0.31,0.68,0.4,1.05c0.13,0.51-0.3,0.58-0.3,0.58L38.81,34h-2.49v-2.49l-0.01,0.02c0,0-0.08-0.43-0.58-0.3
				c-0.37,0.1-0.62,0.4-1.05,0.4c-0.6,0-1.09-0.49-1.09-1.09c0-0.6,0.49-1.09,1.09-1.09c0.43,0,0.64,0.28,1.05,0.39
				c0.44,0.11,0.58-0.33,0.58-0.33l0.01,0.02v-2.45h2.45c0.09,0.04,0.41,0.19,0.31,0.57c-0.11,0.42-0.39,0.62-0.39,1.05
				c0,0.6,0.49,1.09,1.09,1.09c0.6,0,1.09-0.49,1.09-1.09c0-0.43-0.31-0.68-0.4-1.05c-0.11-0.42,0.17-0.54,0.27-0.57h2.5v2.49
				l0.01-0.02c0,0,0.08,0.43,0.58,0.3c0.37-0.1,0.62-0.4,1.05-0.4c0.6,0,1.09,0.49,1.09,1.09c0,0.6-0.49,1.09-1.09,1.09
				c-0.43,0-0.64-0.28-1.05-0.39c-0.44-0.11-0.58,0.33-0.58,0.33l-0.01-0.02V34H40.79z"/>
			<path style="clip-path:url(#SVGID_00000078764060461223541720000016319074535514195586_);fill:#82CAA9;" d="M47.71,40.91
				l0.02-0.01c0,0-0.44-0.14-0.33-0.58c0.11-0.42,0.39-0.62,0.39-1.05c0-0.6-0.49-1.09-1.09-1.09c-0.6,0-1.09,0.49-1.09,1.09
				c0,0.43,0.31,0.68,0.4,1.05c0.13,0.51-0.3,0.58-0.3,0.58l0.02,0.01h-2.49v-2.49l-0.01,0.02c0,0-0.08-0.43-0.58-0.3
				c-0.37,0.1-0.62,0.4-1.05,0.4c-0.6,0-1.09-0.49-1.09-1.09c0-0.6,0.49-1.09,1.09-1.09c0.43,0,0.64,0.28,1.05,0.39
				c0.44,0.11,0.58-0.33,0.58-0.33l0.01,0.02V34h2.45c0.09,0.04,0.41,0.19,0.31,0.57c-0.11,0.42-0.39,0.62-0.39,1.05
				c0,0.6,0.49,1.09,1.09,1.09c0.6,0,1.09-0.49,1.09-1.09c0-0.43-0.31-0.68-0.4-1.05c-0.11-0.42,0.17-0.54,0.27-0.57h2.5v2.49
				l0.01-0.02c0,0,0.08,0.43,0.58,0.3c0.37-0.1,0.62-0.4,1.05-0.4c0.6,0,1.09,0.49,1.09,1.09c0,0.6-0.49,1.09-1.09,1.09
				c-0.43,0-0.64-0.28-1.05-0.39c-0.44-0.11-0.58,0.33-0.58,0.33l-0.01-0.02v2.45H47.71z"/>
			<path style="clip-path:url(#SVGID_00000078764060461223541720000016319074535514195586_);fill:#FFFFFF;" d="M33.87,40.91
				l0.02-0.01c0,0-0.44-0.14-0.33-0.58c0.11-0.42,0.39-0.62,0.39-1.05c0-0.6-0.49-1.09-1.09-1.09c-0.6,0-1.09,0.49-1.09,1.09
				c0,0.43,0.31,0.68,0.4,1.05c0.13,0.51-0.3,0.58-0.3,0.58l0.02,0.01h-2.49v-2.49l-0.01,0.02c0,0-0.08-0.43-0.58-0.3
				c-0.37,0.1-0.62,0.4-1.05,0.4c-0.6,0-1.09-0.49-1.09-1.09c0-0.6,0.49-1.09,1.09-1.09c0.43,0,0.64,0.28,1.05,0.39
				c0.44,0.11,0.58-0.33,0.58-0.33l0.01,0.02V34h2.45c0.09,0.04,0.4,0.19,0.31,0.57c-0.11,0.42-0.39,0.62-0.39,1.05
				c0,0.6,0.49,1.09,1.09,1.09c0.6,0,1.09-0.49,1.09-1.09c0-0.43-0.31-0.68-0.4-1.05c-0.11-0.42,0.17-0.54,0.27-0.57h2.5v2.49
				l0.01-0.02c0,0,0.08,0.43,0.58,0.3c0.37-0.1,0.62-0.4,1.05-0.4c0.6,0,1.09,0.49,1.09,1.09c0,0.6-0.49,1.09-1.09,1.09
				c-0.43,0-0.64-0.28-1.05-0.39c-0.44-0.11-0.58,0.33-0.58,0.33l-0.01-0.02v2.45H33.87z"/>
			<path style="clip-path:url(#SVGID_00000078764060461223541720000016319074535514195586_);fill:#57B6DD;" d="M31.21,38.31h0.02
				c0,0-0.37-0.29-0.1-0.66c0.25-0.35,0.58-0.44,0.73-0.85c0.21-0.56-0.08-1.19-0.64-1.4c-0.56-0.21-1.19,0.08-1.4,0.64
				c-0.15,0.4,0.05,0.75,0.01,1.13c-0.05,0.52-0.49,0.44-0.49,0.44l0.01,0.01l-2.33-0.87l0.87-2.33l-0.01,0.01
				c0,0,0.08-0.43-0.44-0.49c-0.38-0.04-0.72,0.16-1.13,0.01c-0.56-0.21-0.85-0.84-0.64-1.4c0.21-0.56,0.84-0.85,1.4-0.64
				c0.4,0.15,0.5,0.49,0.85,0.73c0.38,0.26,0.66-0.11,0.66-0.11v0.02l0.85-2.29l2.3,0.86c0.07,0.06,0.31,0.32,0.09,0.65
				c-0.25,0.35-0.58,0.44-0.73,0.85c-0.21,0.56,0.08,1.19,0.64,1.4c0.56,0.21,1.19-0.08,1.4-0.64c0.15-0.4-0.05-0.75-0.01-1.13
				c0.05-0.43,0.35-0.45,0.45-0.44l2.35,0.87l-0.87,2.33l0.01-0.01c0,0-0.08,0.43,0.44,0.49c0.38,0.04,0.72-0.16,1.13-0.01
				c0.56,0.21,0.85,0.84,0.64,1.4c-0.21,0.56-0.84,0.85-1.4,0.64c-0.4-0.15-0.5-0.49-0.85-0.73c-0.38-0.26-0.66,0.11-0.66,0.11
				v-0.02l-0.86,2.29L31.21,38.31z"/>
			<path style="clip-path:url(#SVGID_00000078764060461223541720000016319074535514195586_);fill:#AEDEE4;" d="M40.79,20.17
				l0.02-0.01c0,0-0.44-0.14-0.33-0.58c0.11-0.42,0.39-0.62,0.39-1.05c0-0.6-0.49-1.09-1.09-1.09c-0.6,0-1.09,0.49-1.09,1.09
				c0,0.43,0.31,0.68,0.4,1.05c0.13,0.51-0.3,0.58-0.3,0.58l0.02,0.01h-2.49v-2.49l-0.01,0.02c0,0-0.08-0.43-0.58-0.3
				c-0.37,0.1-0.62,0.4-1.05,0.4c-0.6,0-1.09-0.49-1.09-1.09c0-0.6,0.49-1.09,1.09-1.09c0.43,0,0.64,0.28,1.05,0.39
				c0.44,0.11,0.58-0.33,0.58-0.33l0.01,0.02v-2.45h2.45c0.09,0.04,0.41,0.19,0.31,0.57c-0.11,0.42-0.39,0.62-0.39,1.05
				c0,0.6,0.49,1.09,1.09,1.09c0.6,0,1.09-0.49,1.09-1.09c0-0.43-0.31-0.68-0.4-1.05c-0.11-0.42,0.17-0.55,0.27-0.57h2.5v2.49
				l0.01-0.02c0,0,0.08,0.43,0.58,0.3c0.37-0.1,0.62-0.4,1.05-0.4c0.6,0,1.09,0.49,1.09,1.09c0,0.6-0.49,1.09-1.09,1.09
				c-0.43,0-0.64-0.28-1.05-0.39c-0.44-0.11-0.58,0.33-0.58,0.33l-0.01-0.02v2.45H40.79z"/>
			<path style="clip-path:url(#SVGID_00000078764060461223541720000016319074535514195586_);fill:#FFFFFF;" d="M29.41,17.72
				l0.01,0.02c0,0,0.14-0.44,0.58-0.33c0.42,0.11,0.62,0.39,1.05,0.39c0.6,0,1.09-0.49,1.09-1.09c0-0.6-0.49-1.09-1.09-1.09
				c-0.43,0-0.68,0.31-1.05,0.4c-0.51,0.13-0.58-0.3-0.58-0.3l-0.01,0.02v-2.49h2.49l-0.02-0.01c0,0,0.43-0.08,0.3-0.58
				c-0.09-0.37-0.4-0.62-0.4-1.05c0-0.6,0.49-1.09,1.09-1.09c0.6,0,1.09,0.49,1.09,1.09c0,0.43-0.28,0.64-0.39,1.05
				c-0.11,0.44,0.33,0.58,0.33,0.58l-0.02,0.01h2.45v2.45c-0.04,0.09-0.19,0.41-0.57,0.31c-0.42-0.11-0.62-0.39-1.05-0.39
				c-0.6,0-1.09,0.49-1.09,1.09c0,0.6,0.49,1.09,1.09,1.09c0.43,0,0.68-0.31,1.05-0.4c0.42-0.11,0.54,0.17,0.57,0.27v2.5h-2.49
				l0.02,0.01c0,0-0.43,0.08-0.3,0.58c0.09,0.37,0.4,0.62,0.4,1.05c0,0.6-0.49,1.09-1.09,1.09c-0.6,0-1.09-0.49-1.09-1.09
				c0-0.43,0.28-0.64,0.39-1.05c0.11-0.44-0.33-0.58-0.33-0.58l0.02-0.01h-2.45V17.72z"/>
			<path style="clip-path:url(#SVGID_00000078764060461223541720000016319074535514195586_);fill:#00ADEE;" d="M37.6,19.24l0.02,0
				c0,0-0.36-0.3-0.08-0.66c0.26-0.34,0.6-0.42,0.76-0.82c0.23-0.56-0.04-1.19-0.59-1.42c-0.56-0.23-1.19,0.04-1.42,0.59
				c-0.16,0.4,0.03,0.75-0.03,1.13c-0.07,0.52-0.5,0.42-0.5,0.42l0.01,0.01l-2.3-0.95l0.95-2.3l-0.01,0.01c0,0,0.09-0.43-0.42-0.5
				c-0.38-0.05-0.73,0.14-1.13-0.03c-0.56-0.23-0.82-0.87-0.59-1.42c0.23-0.56,0.87-0.82,1.42-0.59c0.4,0.16,0.48,0.5,0.82,0.76
				c0.37,0.27,0.66-0.08,0.66-0.08l0,0.02l0.93-2.26l2.27,0.93c0.07,0.07,0.3,0.33,0.06,0.65c-0.26,0.34-0.6,0.42-0.76,0.82
				c-0.23,0.56,0.04,1.19,0.59,1.42c0.56,0.23,1.19-0.04,1.42-0.59c0.16-0.4-0.03-0.75,0.03-1.13c0.06-0.43,0.37-0.44,0.47-0.43
				l2.31,0.95l-0.95,2.3l0.01-0.01c0,0-0.09,0.43,0.42,0.5c0.38,0.05,0.73-0.14,1.13,0.03c0.56,0.23,0.82,0.87,0.59,1.42
				c-0.23,0.56-0.87,0.82-1.42,0.59c-0.4-0.16-0.48-0.5-0.82-0.76c-0.37-0.27-0.66,0.08-0.66,0.08l0-0.02l-0.93,2.26L37.6,19.24z"/>
			<path style="clip-path:url(#SVGID_00000078764060461223541720000016319074535514195586_);fill:#AEDEE4;" d="M26.8,20.97
				l0.01,0.02c0,0-0.01-0.46,0.44-0.5c0.43-0.03,0.71,0.17,1.12,0.03c0.57-0.2,0.87-0.82,0.67-1.39c-0.2-0.57-0.82-0.87-1.39-0.67
				c-0.41,0.14-0.54,0.51-0.86,0.73c-0.44,0.29-0.65-0.09-0.65-0.09l0,0.02l-0.81-2.35l2.35-0.81l-0.02,0c0,0,0.38-0.21,0.09-0.65
				c-0.21-0.32-0.58-0.45-0.73-0.86c-0.2-0.57,0.1-1.19,0.67-1.39c0.57-0.2,1.19,0.1,1.39,0.67c0.14,0.41-0.06,0.69-0.03,1.12
				c0.04,0.46,0.5,0.44,0.5,0.44l-0.02,0.01l2.31-0.8l0.8,2.32c0,0.1-0.05,0.45-0.44,0.48c-0.43,0.04-0.71-0.17-1.12-0.03
				c-0.57,0.2-0.87,0.82-0.67,1.39c0.2,0.57,0.82,0.87,1.39,0.67c0.41-0.14,0.54-0.51,0.86-0.73c0.36-0.24,0.57-0.02,0.63,0.06
				l0.82,2.37l-2.35,0.81l0.02,0c0,0-0.38,0.21-0.09,0.65c0.21,0.32,0.58,0.45,0.73,0.86c0.2,0.57-0.11,1.19-0.67,1.39
				c-0.57,0.2-1.19-0.1-1.39-0.67c-0.14-0.41,0.06-0.69,0.03-1.12c-0.04-0.46-0.5-0.44-0.5-0.44l0.02-0.01l-2.31,0.8L26.8,20.97z"/>
			<path style="clip-path:url(#SVGID_00000078764060461223541720000016319074535514195586_);fill:#FFFFFF;" d="M29.41,31.55
				l0.01,0.02c0,0,0.14-0.44,0.58-0.33c0.42,0.11,0.62,0.39,1.05,0.39c0.6,0,1.09-0.49,1.09-1.09c0-0.6-0.49-1.09-1.09-1.09
				c-0.43,0-0.68,0.31-1.05,0.4c-0.51,0.13-0.58-0.3-0.58-0.3l-0.01,0.02v-2.49h2.49l-0.02-0.01c0,0,0.43-0.08,0.3-0.58
				c-0.09-0.37-0.4-0.62-0.4-1.05c0-0.6,0.49-1.09,1.09-1.09c0.6,0,1.09,0.49,1.09,1.09c0,0.43-0.28,0.64-0.39,1.05
				c-0.11,0.44,0.33,0.58,0.33,0.58l-0.02,0.01h2.45v2.45c-0.04,0.09-0.19,0.41-0.57,0.31c-0.42-0.11-0.62-0.39-1.05-0.39
				c-0.6,0-1.09,0.49-1.09,1.09c0,0.6,0.49,1.09,1.09,1.09c0.43,0,0.68-0.31,1.05-0.4c0.42-0.11,0.54,0.17,0.57,0.27V34h-2.49
				L33.85,34c0,0-0.43,0.08-0.3,0.58c0.09,0.37,0.4,0.62,0.4,1.05c0,0.6-0.49,1.09-1.09,1.09c-0.6,0-1.09-0.49-1.09-1.09
				c0-0.43,0.28-0.64,0.39-1.05c0.11-0.44-0.33-0.58-0.33-0.58L31.86,34h-2.45V31.55z"/>
		</g>
	</g>
	<path class="st23" d="M22.45,50.71c0.89,1.12,0.76,4.16,2.4,4.43v-4.2c0-1.49-0.88-1.76-1.28-1.94h2.18h1.39
		c-0.4,0.19-1.28,0.45-1.28,1.94v4.2c1.64-0.27,1.51-3.31,2.4-4.43c0.8-1.01,1.94-0.8,2.45-0.03c-1.17-0.37-1.49,0.27-1.94,1.73
		c-0.26,0.85-0.6,2.12-1.2,2.8c-0.38,0.42-0.92,0.72-1.64,0.79c0,5.4,0.88,6.39,1.22,6.55h-3.57c0.34-0.16,1.22-1.14,1.22-6.55
		c-0.73-0.06-1.27-0.36-1.64-0.79c-0.6-0.68-0.93-1.95-1.2-2.8c-0.45-1.46-0.77-2.1-1.94-1.73C20.51,49.91,21.65,49.7,22.45,50.71
		L22.45,50.71z"/>
	<path class="st24" d="M40.82,70.48c0,0-1.72-5.7-0.53-8.48c1.19-2.78,3.58-3.97,8.34-3.44c4.77,0.53,5.83,1.46,7.22-0.33
		c1.22-1.57-0.46-3.58,2.38-5.83c0,0,2.45-0.86,0.66-2.19c0,0-0.86-0.93-0.07-1.06c0.79-0.13,2.32-0.79,1.79-1.92
		c-0.53-1.13-1.66-1.46-0.86-2.45c0.79-0.99,3.71-1.46,3.78-2.38c0.07-0.93,0.27-1.26-1.13-2.85c-1.39-1.59-4.77-7.62-4.77-7.62
		s-0.33-1.39,0.4-2.45c0.66-0.95,0.66-9.93-3.25-14.9c-3.91-4.97-7.95-9.67-21.13-10.53C20.48,3.2,15.58,12.8,15.58,12.8
		s13.31-12.19,24.5-3.05c0,0,8.45,6.49,4.97,21.06c0,0-1.59,6.29-3.38,9.17C39.89,42.87,33.8,63.13,40.82,70.48z"/>
	<path class="st23" d="M41.35,69.95c0,0-1.72-5.7-0.53-8.48c1.19-2.78,3.58-3.97,8.34-3.44c4.77,0.53,5.83,1.46,7.22-0.33
		c1.22-1.57-0.46-3.58,2.38-5.83c0,0,2.45-0.86,0.66-2.19c0,0-0.86-0.93-0.07-1.06c0.79-0.13,2.32-0.79,1.79-1.92
		c-0.53-1.13-1.66-1.46-0.86-2.45c0.79-0.99,3.71-1.46,3.77-2.38c0.07-0.93,0.27-1.26-1.13-2.85c-1.39-1.59-4.77-7.62-4.77-7.62
		s-0.33-1.39,0.4-2.45c0.66-0.95,0.66-9.93-3.25-14.9c-3.91-4.97-7.95-9.67-21.13-10.53c-13.18-0.86-18.08,8.74-18.08,8.74
		s13.31-12.19,24.5-3.05c0,0,8.45,6.49,4.97,21.06c0,0-1.59,6.29-3.38,9.17C40.42,42.34,34.33,62.6,41.35,69.95z"/>
	<path class="st23" d="M22.61,47.16c0,0,0.12,1.42,3.13,1.84c0,0-0.96,2.12-3.15-0.84c0,0-0.59-0.71-1.03-2.27
		c-0.18-0.62-0.57-1.46-0.63-2.08C20.93,43.81,21.64,46.09,22.61,47.16z"/>
	<path class="st23" d="M24.86,51.65c0,0,0.05-0.68-1.59-2.68l1.47,0.4l0.63,0.89L24.86,51.65z"/>
</g>
</svg>
